<svg width="196" height="59" viewBox="0 0 196 59" fill="none" xmlns="http://www.w3.org/2000/svg">
<g clip-path="url(#clip0_365_399)">
<path d="M189.041 58.3141H7.259C3.48189 58.3141 0.407471 55.2206 0.407471 51.4336V7.03535C0.407471 3.24694 3.48189 0.165039 7.259 0.165039H189.041C192.817 0.165039 196 3.24694 196 7.03535V51.4336C196 55.2206 192.817 58.3141 189.041 58.3141Z" fill="white" fill-opacity="0.2"/>
<path d="M194.597 51.435C194.597 54.5111 192.114 57.0027 189.043 57.0027H7.25909C4.18901 57.0027 1.69702 54.5111 1.69702 51.435V7.03378C1.69702 3.95915 4.18901 1.45874 7.25909 1.45874H189.041C192.114 1.45874 194.596 3.95915 194.596 7.03378L194.597 51.435Z" fill="#1C0732"/>
<path d="M194.597 51.435C194.597 54.5111 192.114 57.0027 189.043 57.0027H7.25909C4.18901 57.0027 1.69702 54.5111 1.69702 51.435V7.03378C1.69702 3.95915 4.18901 1.45874 7.25909 1.45874H189.041C192.114 1.45874 194.596 3.95915 194.596 7.03378L194.597 51.435Z" fill="white" fill-opacity="0.1"/>
<path d="M44.058 28.9256C44.016 24.2402 47.8815 21.9607 48.0583 21.8546C45.8691 18.6521 42.4759 18.2145 41.2835 18.1796C38.4337 17.8787 35.6693 19.8906 34.2176 19.8906C32.7368 19.8906 30.5013 18.2087 28.0919 18.2581C24.9914 18.3061 22.0908 20.1072 20.5 22.9042C17.2169 28.6072 19.6655 36.9879 22.8109 41.5977C24.3843 43.8553 26.2229 46.3761 28.6294 46.2874C30.9838 46.19 31.8632 44.7814 34.7044 44.7814C37.5194 44.7814 38.3453 46.2874 40.7996 46.2307C43.3264 46.19 44.9172 43.9629 46.4356 41.6849C48.2538 39.0973 48.9841 36.5489 49.013 36.4181C48.9536 36.3977 44.1058 34.5413 44.058 28.9256Z" fill="white"/>
<path d="M39.4219 15.1472C40.6881 13.5582 41.5545 11.3966 41.314 9.20288C39.4813 9.28429 37.1892 10.4749 35.8693 12.0289C34.7016 13.3983 33.6584 15.6429 33.9279 17.7537C35.9867 17.9078 38.1005 16.7114 39.4219 15.1472Z" fill="white"/>
<path d="M78.1302 45.9632H74.8399L73.0375 40.2805H66.7728L65.0559 45.9632H61.8525L68.0593 26.6169H71.893L78.1302 45.9632ZM72.4942 37.8964L70.8643 32.8447C70.6919 32.3286 70.3688 31.1133 69.8921 29.2002H69.8342C69.6444 30.023 69.3387 31.2383 68.9185 32.8447L67.3175 37.8964H72.4942Z" fill="white"/>
<path d="M94.092 38.8166C94.092 41.1891 93.4531 43.0644 92.1752 44.4411C91.0306 45.6666 89.6093 46.2786 87.9128 46.2786C86.0814 46.2786 84.7659 45.6186 83.9647 44.2986H83.9067V51.6472H80.8178V36.6055C80.8178 35.114 80.7787 33.5832 80.7034 32.0132H83.4199L83.5923 34.2243H83.6503C84.6804 32.5583 86.2437 31.7268 88.3416 31.7268C89.9817 31.7268 91.3508 32.3766 92.4462 33.6777C93.5444 34.9802 94.092 36.6927 94.092 38.8166ZM90.9452 38.93C90.9452 37.5722 90.6409 36.4529 90.0295 35.5719C89.3616 34.6532 88.4648 34.1938 87.3405 34.1938C86.5784 34.1938 85.8858 34.4496 85.2672 34.9541C84.6471 35.4629 84.2414 36.1272 84.0516 36.95C83.956 37.3338 83.9082 37.6478 83.9082 37.895V40.2209C83.9082 41.2356 84.2182 42.0919 84.8383 42.7911C85.4584 43.4904 86.264 43.8393 87.255 43.8393C88.4184 43.8393 89.3239 43.3886 89.9715 42.4902C90.6206 41.5903 90.9452 40.4041 90.9452 38.93Z" fill="white"/>
<path d="M110.083 38.8166C110.083 41.1891 109.444 43.0644 108.165 44.4411C107.021 45.6666 105.6 46.2786 103.903 46.2786C102.072 46.2786 100.757 45.6186 99.9569 44.2986H99.8989V51.6472H96.81V36.6055C96.81 35.114 96.7709 33.5832 96.6956 32.0132H99.4121L99.5845 34.2243H99.6425C100.671 32.5583 102.234 31.7268 104.334 31.7268C105.972 31.7268 107.342 32.3766 108.44 33.6777C109.534 34.9802 110.083 36.6927 110.083 38.8166ZM106.936 38.93C106.936 37.5722 106.63 36.4529 106.019 35.5719C105.351 34.6532 104.457 34.1938 103.331 34.1938C102.568 34.1938 101.877 34.4496 101.256 34.9541C100.636 35.4629 100.232 36.1272 100.042 36.95C99.9482 37.3338 99.8989 37.6478 99.8989 37.895V40.2209C99.8989 41.2356 100.209 42.0919 100.826 42.7911C101.446 43.4889 102.252 43.8393 103.246 43.8393C104.409 43.8393 105.315 43.3886 105.962 42.4902C106.611 41.5903 106.936 40.4041 106.936 38.93Z" fill="white"/>
<path d="M127.961 40.5379C127.961 42.1835 127.392 43.5224 126.249 44.556C124.993 45.6855 123.244 46.2496 120.997 46.2496C118.922 46.2496 117.259 45.8483 116 45.0444L116.715 42.4611C118.072 43.284 119.56 43.6968 121.181 43.6968C122.344 43.6968 123.25 43.4322 123.9 42.906C124.548 42.3797 124.871 41.6732 124.871 40.7923C124.871 40.0073 124.604 39.3458 124.07 38.8094C123.538 38.273 122.65 37.7743 121.41 37.3135C118.034 36.0502 116.347 34.1996 116.347 31.7661C116.347 30.1757 116.939 28.8717 118.122 27.857C119.302 26.8408 120.875 26.3335 122.843 26.3335C124.597 26.3335 126.055 26.6402 127.218 27.2523L126.446 29.7788C125.359 29.1857 124.131 28.8892 122.756 28.8892C121.669 28.8892 120.82 29.1581 120.212 29.6931C119.697 30.1713 119.439 30.7543 119.439 31.4448C119.439 32.2095 119.733 32.8418 120.325 33.339C120.839 33.7984 121.773 34.2956 123.129 34.832C124.788 35.5022 126.007 36.2857 126.791 37.1841C127.572 38.0796 127.961 39.2004 127.961 40.5379Z" fill="white"/>
<path d="M138.174 34.3392H134.769V41.1121C134.769 42.8348 135.369 43.6954 136.572 43.6954C137.124 43.6954 137.582 43.6474 137.944 43.5514L138.029 45.905C137.421 46.1333 136.62 46.2481 135.627 46.2481C134.407 46.2481 133.454 45.8745 132.766 45.1287C132.08 44.3815 131.736 43.1284 131.736 41.3679V34.3363H129.707V32.0103H131.736V29.4561L134.769 28.5374V32.0103H138.174V34.3392Z" fill="white"/>
<path d="M153.536 38.8733C153.536 41.0176 152.925 42.7781 151.705 44.1547C150.426 45.5721 148.728 46.2786 146.611 46.2786C144.571 46.2786 142.947 45.5997 141.736 44.242C140.524 42.8842 139.919 41.1702 139.919 39.1045C139.919 36.9428 140.542 35.1722 141.792 33.7955C143.039 32.4173 144.723 31.7283 146.84 31.7283C148.88 31.7283 150.521 32.4072 151.76 33.7664C152.945 35.0849 153.536 36.7872 153.536 38.8733ZM150.331 38.9736C150.331 37.6871 150.058 36.5837 149.503 35.6635C148.855 34.55 147.929 33.9946 146.73 33.9946C145.488 33.9946 144.545 34.5514 143.897 35.6635C143.342 36.5852 143.068 37.706 143.068 39.0318C143.068 40.3183 143.342 41.4217 143.897 42.3405C144.565 43.454 145.498 44.0094 146.702 44.0094C147.881 44.0094 148.807 43.4424 149.475 42.3114C150.045 41.3738 150.331 40.2587 150.331 38.9736Z" fill="white"/>
<path d="M163.576 34.7389C163.271 34.6822 162.945 34.6532 162.603 34.6532C161.516 34.6532 160.676 35.0646 160.085 35.8888C159.57 36.6157 159.313 37.5344 159.313 38.6436V45.9632H156.225L156.254 36.4064C156.254 34.7985 156.215 33.3346 156.138 32.0146H158.829L158.942 34.6837H159.027C159.353 33.7664 159.867 33.0279 160.572 32.474C161.26 31.9754 162.003 31.7268 162.804 31.7268C163.09 31.7268 163.348 31.7472 163.576 31.7835V34.7389Z" fill="white"/>
<path d="M177.391 38.3282C177.391 38.8836 177.355 39.3516 177.278 39.734H168.012C168.048 41.1121 168.495 42.1661 169.356 42.8929C170.137 43.5427 171.147 43.8684 172.387 43.8684C173.759 43.8684 175.011 43.6489 176.137 43.2084L176.621 45.3599C175.305 45.9356 173.752 46.222 171.96 46.222C169.804 46.222 168.112 45.5852 166.88 44.3132C165.651 43.0412 165.036 41.3331 165.036 39.1903C165.036 37.0867 165.608 35.335 166.754 33.938C167.954 32.4464 169.575 31.7007 171.615 31.7007C173.619 31.7007 175.135 32.4464 176.166 33.938C176.981 35.1228 177.391 36.5881 177.391 38.3282ZM174.446 37.5243C174.466 36.6056 174.265 35.8118 173.846 35.1417C173.311 34.2796 172.49 33.8493 171.384 33.8493C170.375 33.8493 169.553 34.2694 168.926 35.1126C168.411 35.7828 168.106 36.5867 168.012 37.5229H174.446V37.5243Z" fill="white"/>
<path d="M71.473 14.7153C71.473 16.4264 70.9616 17.7144 69.9402 18.5793C68.9941 19.3774 67.6496 19.7772 65.9081 19.7772C65.0446 19.7772 64.3057 19.7394 63.687 19.6638V10.3149C64.494 10.1841 65.3633 10.1172 66.3022 10.1172C67.9611 10.1172 69.2114 10.4792 70.0546 11.2031C70.9993 12.0216 71.473 13.1918 71.473 14.7153ZM69.8721 14.7575C69.8721 13.6483 69.5794 12.7979 68.9941 12.2047C68.4088 11.6131 67.554 11.3165 66.4282 11.3165C65.9501 11.3165 65.543 11.3485 65.2054 11.4154V18.5226C65.3923 18.5517 65.7342 18.5648 66.2312 18.5648C67.3931 18.5648 68.29 18.2406 68.9217 17.5923C69.5533 16.9439 69.8721 15.999 69.8721 14.7575Z" fill="white"/>
<path d="M79.9617 16.2097C79.9617 17.2637 79.6618 18.1272 79.062 18.8046C78.4332 19.501 77.6001 19.8484 76.5599 19.8484C75.5573 19.8484 74.759 19.5155 74.1635 18.8468C73.5695 18.1795 73.2725 17.3378 73.2725 16.3231C73.2725 15.2619 73.5782 14.3911 74.1925 13.7151C74.8068 13.0392 75.6326 12.7004 76.6729 12.7004C77.6755 12.7004 78.481 13.0333 79.091 13.7006C79.6705 14.349 79.9617 15.1863 79.9617 16.2097ZM78.3868 16.2592C78.3868 15.6268 78.2506 15.0846 77.9797 14.6324C77.661 14.0858 77.2075 13.8125 76.6178 13.8125C76.0079 13.8125 75.5442 14.0858 75.2255 14.6324C74.9531 15.0846 74.8184 15.6355 74.8184 16.2868C74.8184 16.9192 74.9546 17.4614 75.2255 17.9135C75.5544 18.4601 76.0122 18.7334 76.6033 18.7334C77.1829 18.7334 77.6378 18.4557 77.9652 17.899C78.2463 17.4381 78.3868 16.8915 78.3868 16.2592Z" fill="white"/>
<path d="M91.3438 12.8398L89.2067 19.6927H87.8159L86.9306 16.7169C86.7061 15.9741 86.5235 15.2356 86.3815 14.5029H86.354C86.2221 15.2559 86.0396 15.993 85.8049 16.7169L84.8646 19.6927H83.4578L81.4482 12.8398H83.0086L83.7809 16.0976C83.9678 16.8681 84.1213 17.6023 84.2445 18.2971H84.272C84.385 17.7244 84.5719 16.9946 84.8356 16.1122L85.8049 12.8413H87.0422L87.9709 16.0424C88.1955 16.8231 88.378 17.5746 88.5185 18.2986H88.5606C88.6634 17.5935 88.8185 16.842 89.0242 16.0424L89.8529 12.8413H91.3438V12.8398Z" fill="white"/>
<path d="M99.2153 19.6928H97.697V15.7678C97.697 14.5583 97.2391 13.9535 96.3206 13.9535C95.87 13.9535 95.5063 14.1192 95.2238 14.4521C94.9442 14.7851 94.8022 15.1776 94.8022 15.6268V19.6914H93.2838V14.7981C93.2838 14.1963 93.265 13.5436 93.2288 12.8371H94.5631L94.6341 13.9085H94.6761C94.8529 13.5756 95.1166 13.3008 95.4629 13.0813C95.8743 12.8254 96.3351 12.696 96.8392 12.696C97.4767 12.696 98.007 12.9025 98.4286 13.3168C98.9531 13.8241 99.2153 14.5815 99.2153 15.5875V19.6928Z" fill="white"/>
<path d="M103.402 19.6928H101.885V9.69556H103.402V19.6928Z" fill="white"/>
<path d="M112.342 16.2097C112.342 17.2637 112.042 18.1272 111.442 18.8046C110.813 19.501 109.979 19.8484 108.94 19.8484C107.936 19.8484 107.138 19.5155 106.544 18.8468C105.95 18.1795 105.653 17.3378 105.653 16.3231C105.653 15.2619 105.958 14.3911 106.573 13.7151C107.187 13.0392 108.013 12.7004 109.052 12.7004C110.056 12.7004 110.86 13.0333 111.471 13.7006C112.051 14.349 112.342 15.1863 112.342 16.2097ZM110.766 16.2592C110.766 15.6268 110.629 15.0846 110.358 14.6324C110.041 14.0858 109.586 13.8125 108.998 13.8125C108.387 13.8125 107.923 14.0858 107.606 14.6324C107.333 15.0846 107.198 15.6355 107.198 16.2868C107.198 16.9192 107.335 17.4614 107.606 17.9135C107.934 18.4601 108.392 18.7334 108.983 18.7334C109.563 18.7334 110.016 18.4557 110.344 17.899C110.626 17.4381 110.766 16.8915 110.766 16.2592Z" fill="white"/>
<path d="M119.69 19.6929H118.327L118.214 18.9035H118.172C117.705 19.533 117.04 19.8484 116.177 19.8484C115.532 19.8484 115.011 19.6405 114.618 19.2277C114.261 18.8526 114.083 18.386 114.083 17.8321C114.083 16.9948 114.431 16.3566 115.131 15.9146C115.829 15.4727 116.811 15.2561 118.076 15.2663V15.1383C118.076 14.2356 117.604 13.7849 116.658 13.7849C115.984 13.7849 115.39 13.955 114.877 14.2923L114.569 13.2921C115.203 12.8981 115.987 12.7004 116.911 12.7004C118.696 12.7004 119.592 13.6454 119.592 15.5352V18.0589C119.592 18.7436 119.625 19.2887 119.69 19.6929ZM118.114 17.3378V16.281C116.439 16.2519 115.602 16.7127 115.602 17.662C115.602 18.0196 115.697 18.2871 115.893 18.4659C116.088 18.6447 116.338 18.7334 116.635 18.7334C116.968 18.7334 117.279 18.6273 117.563 18.4165C117.849 18.2043 118.024 17.9353 118.089 17.6053C118.105 17.5312 118.114 17.441 118.114 17.3378Z" fill="white"/>
<path d="M128.318 19.6928H126.971L126.9 18.5924H126.858C126.427 19.4297 125.694 19.8484 124.664 19.8484C123.841 19.8484 123.156 19.5242 122.613 18.8758C122.069 18.2275 121.798 17.3858 121.798 16.3522C121.798 15.243 122.092 14.3446 122.684 13.6584C123.256 13.0188 123.957 12.699 124.792 12.699C125.709 12.699 126.351 13.0086 126.716 13.6293H126.745V9.69556H128.264V17.8466C128.264 18.5139 128.282 19.1288 128.318 19.6928ZM126.745 16.8028V15.6602C126.745 15.4625 126.73 15.3026 126.703 15.1805C126.617 14.8141 126.433 14.5059 126.154 14.2574C125.871 14.0088 125.531 13.8837 125.138 13.8837C124.571 13.8837 124.128 14.1091 123.802 14.5612C123.479 15.0133 123.315 15.5904 123.315 16.2955C123.315 16.9729 123.47 17.5224 123.782 17.9455C124.111 18.3961 124.554 18.6214 125.109 18.6214C125.607 18.6214 126.006 18.4339 126.309 18.0574C126.601 17.71 126.745 17.2913 126.745 16.8028Z" fill="white"/>
<path d="M141.304 16.2097C141.304 17.2637 141.004 18.1272 140.404 18.8046C139.775 19.501 138.944 19.8484 137.902 19.8484C136.901 19.8484 136.102 19.5155 135.506 18.8468C134.912 18.1795 134.615 17.3378 134.615 16.3231C134.615 15.2619 134.92 14.3911 135.535 13.7151C136.149 13.0392 136.975 12.7004 138.016 12.7004C139.018 12.7004 139.825 13.0333 140.433 13.7006C141.013 14.349 141.304 15.1863 141.304 16.2097ZM139.73 16.2592C139.73 15.6268 139.594 15.0846 139.323 14.6324C139.003 14.0858 138.551 13.8125 137.96 13.8125C137.351 13.8125 136.888 14.0858 136.568 14.6324C136.295 15.0846 136.16 15.6355 136.16 16.2868C136.16 16.9192 136.297 17.4614 136.568 17.9135C136.896 18.4601 137.354 18.7334 137.945 18.7334C138.525 18.7334 138.981 18.4557 139.309 17.899C139.588 17.4381 139.73 16.8915 139.73 16.2592Z" fill="white"/>
<path d="M149.468 19.6928H147.951V15.7678C147.951 14.5583 147.493 13.9535 146.573 13.9535C146.123 13.9535 145.759 14.1192 145.478 14.4521C145.197 14.7851 145.056 15.1776 145.056 15.6268V19.6914H143.537V14.7981C143.537 14.1963 143.519 13.5436 143.483 12.8371H144.816L144.887 13.9085H144.929C145.107 13.5756 145.371 13.3008 145.716 13.0813C146.128 12.8254 146.588 12.696 147.093 12.696C147.729 12.696 148.26 12.9025 148.681 13.3168C149.207 13.8241 149.468 14.5815 149.468 15.5875V19.6928Z" fill="white"/>
<path d="M159.687 13.9812H158.015V17.3102C158.015 18.1563 158.312 18.5793 158.9 18.5793C159.172 18.5793 159.398 18.556 159.577 18.5081L159.616 19.6638C159.316 19.7772 158.922 19.8339 158.436 19.8339C157.837 19.8339 157.37 19.6507 157.032 19.2844C156.693 18.918 156.525 18.3016 156.525 17.4367V13.9812H155.527V12.84H156.525V11.584L158.013 11.1333V12.8385H159.685V13.9812H159.687Z" fill="white"/>
<path d="M167.725 19.6928H166.205V15.7969C166.205 14.5685 165.747 13.9535 164.83 13.9535C164.126 13.9535 163.645 14.3097 163.381 15.022C163.336 15.1717 163.31 15.3549 163.31 15.5701V19.6914H161.793V9.69556H163.31V13.8256H163.339C163.817 13.074 164.503 12.699 165.391 12.699C166.02 12.699 166.54 12.9054 166.953 13.3197C167.467 13.8358 167.725 14.6033 167.725 15.618V19.6928Z" fill="white"/>
<path d="M176.017 15.9424C176.017 16.2157 175.996 16.4454 175.96 16.6329H171.406C171.427 17.3104 171.644 17.8264 172.066 18.184C172.451 18.5039 172.948 18.6638 173.557 18.6638C174.23 18.6638 174.845 18.5562 175.398 18.3396L175.636 19.3979C174.988 19.6799 174.226 19.8209 173.344 19.8209C172.286 19.8209 171.453 19.5084 170.85 18.8833C170.244 18.2582 169.945 17.4194 169.945 16.3669C169.945 15.3333 170.224 14.4727 170.788 13.7865C171.376 13.0538 172.171 12.6875 173.175 12.6875C174.158 12.6875 174.904 13.0538 175.408 13.7865C175.815 14.368 176.017 15.0876 176.017 15.9424ZM174.568 15.5484C174.579 15.0963 174.479 14.7067 174.274 14.3782C174.01 13.9552 173.609 13.7429 173.065 13.7429C172.57 13.7429 172.166 13.9493 171.857 14.3636C171.605 14.6936 171.456 15.0876 171.406 15.5484H174.568Z" fill="white"/>
</g>
<defs>
<clipPath id="clip0_365_399">
<rect width="195.592" height="58.1491" fill="white" transform="translate(0.407471 0.165039)"/>
</clipPath>
</defs>
</svg>
