<svg width="196" height="58" viewBox="0 0 196 58" fill="none" xmlns="http://www.w3.org/2000/svg">
<g clip-path="url(#clip0_365_400)">
<path fill-rule="evenodd" clip-rule="evenodd" d="M188.346 57.7715H7.24683C3.2528 57.7715 0 54.5156 0 50.5501V7.22144C0 3.24154 3.2528 0 7.24683 0H188.346C192.336 0 195.592 3.24154 195.592 7.22144V50.5501C195.592 54.5156 192.336 57.7715 188.346 57.7715Z" fill="#1C0732"/>
<path fill-rule="evenodd" clip-rule="evenodd" d="M188.346 57.7715H7.24683C3.2528 57.7715 0 54.5156 0 50.5501V7.22144C0 3.24154 3.2528 0 7.24683 0H188.346C192.336 0 195.592 3.24154 195.592 7.22144V50.5501C195.592 54.5156 192.336 57.7715 188.346 57.7715Z" fill="white" fill-opacity="0.1"/>
<path fill-rule="evenodd" clip-rule="evenodd" d="M188.346 1.15615C191.696 1.15615 194.437 3.88265 194.437 7.22144V50.5501C194.437 53.8889 191.714 56.6154 188.346 56.6154H7.24683C3.89688 56.6154 1.15503 53.8889 1.15503 50.5501V7.22144C1.15503 3.88265 3.87889 1.15615 7.24683 1.15615H188.346ZM188.346 0H7.24683C3.2528 0 0 3.25595 0 7.22144V50.5501C0 54.53 3.2528 57.7715 7.24683 57.7715H188.346C192.336 57.7715 195.592 54.53 195.592 50.5501V7.22144C195.592 3.25595 192.336 0 188.346 0Z" fill="white" fill-opacity="0.2"/>
<path d="M103.039 19.1107C101.733 19.1107 100.632 18.6533 99.7608 17.7529C98.8973 16.8777 98.4151 15.6711 98.4367 14.4393C98.4367 13.1247 98.8829 12.0118 99.7608 11.1293C100.628 10.2289 101.729 9.77148 103.035 9.77148C104.327 9.77148 105.428 10.2289 106.313 11.1293C107.191 12.0406 107.637 13.1535 107.637 14.4393C107.623 15.7575 107.177 16.8705 106.313 17.7493C105.446 18.6569 104.345 19.1107 103.039 19.1107ZM64.1744 19.1107C62.897 19.1107 61.7888 18.6605 60.882 17.7709C59.9825 16.8849 59.5255 15.7647 59.5255 14.4429C59.5255 13.1211 59.9825 12.0009 60.882 11.1149C61.7708 10.2253 62.8791 9.77509 64.1744 9.77509C64.8077 9.77509 65.423 9.90115 66.0131 10.1569C66.5924 10.4054 67.0638 10.7439 67.4128 11.1581L67.4992 11.2626L66.5241 12.2207L66.4233 12.1018C65.8728 11.4463 65.1351 11.1257 64.16 11.1257C63.2892 11.1257 62.53 11.4355 61.9039 12.0478C61.2742 12.6637 60.954 13.4704 60.954 14.4465C60.954 15.4226 61.2742 16.2294 61.9039 16.8453C62.53 17.4575 63.2892 17.7673 64.16 17.7673C65.0884 17.7673 65.8692 17.4575 66.4773 16.8453C66.8371 16.4851 67.0602 15.9808 67.1393 15.3433H64.0125V13.9963H68.4815L68.4995 14.1188C68.5319 14.3457 68.5642 14.5798 68.5642 14.7959C68.5642 16.0385 68.19 17.0433 67.4488 17.7853C66.6068 18.6641 65.5058 19.1107 64.1744 19.1107ZM115.848 18.9198H114.47L110.25 12.1594L110.286 13.3768V18.9162H108.908V9.96598H110.48L110.523 10.0344L114.492 16.4022L114.456 15.1885V9.96598H115.848V18.9198ZM92.6831 18.9198H91.287V11.313H88.8654V9.96598H95.1011V11.313H92.6795V18.9198H92.6831ZM87.7284 18.9198H86.3359V9.96598H87.7284V18.9198ZM79.9022 18.9198H78.5097V11.313H76.0881V9.96598H82.3238V11.313H79.9022V18.9198ZM75.2066 18.9054H69.8668V9.96598H75.2066V11.313H71.2629V13.7694H74.8215V15.102H71.2629V17.5584H75.2066V18.9054ZM100.783 16.8272C101.405 17.4503 102.161 17.7637 103.039 17.7637C103.942 17.7637 104.68 17.4575 105.295 16.8272C105.907 16.215 106.216 15.4118 106.216 14.4429C106.216 13.474 105.907 12.6673 105.298 12.0586C104.676 11.4355 103.917 11.1221 103.042 11.1221C102.139 11.1221 101.402 11.4283 100.79 12.0586C100.178 12.6709 99.8688 13.474 99.8688 14.4429C99.8688 15.4118 100.175 16.2186 100.783 16.8272Z" fill="white"/>
<path fill-rule="evenodd" clip-rule="evenodd" d="M98.3071 31.4215C94.9068 31.4215 92.1506 34.0039 92.1506 37.566C92.1506 41.0957 94.9248 43.7106 98.3071 43.7106C101.707 43.7106 104.464 41.1101 104.464 37.566C104.464 34.0039 101.707 31.4215 98.3071 31.4215ZM98.3071 41.2758C96.4468 41.2758 94.8456 39.7343 94.8456 37.5516C94.8456 35.3366 96.4504 33.8274 98.3071 33.8274C100.167 33.8274 101.769 35.3366 101.769 37.5516C101.772 39.7487 100.167 41.2758 98.3071 41.2758ZM84.8749 31.4215C81.4746 31.4215 78.7184 34.0039 78.7184 37.566C78.7184 41.0957 81.4926 43.7106 84.8749 43.7106C88.2753 43.7106 91.0315 41.1101 91.0315 37.566C91.0315 34.0039 88.2717 31.4215 84.8749 31.4215ZM84.8749 41.2758C83.0147 41.2758 81.4134 39.7343 81.4134 37.5516C81.4134 35.3366 83.0183 33.8274 84.8749 33.8274C86.7352 33.8274 88.3364 35.3366 88.3364 37.5516C88.3364 39.7487 86.7352 41.2758 84.8749 41.2758ZM68.8916 33.298V35.8984H75.1273C74.9366 37.3571 74.4545 38.434 73.7168 39.1724C72.8029 40.0872 71.3924 41.0813 68.906 41.0813C65.0739 41.0813 62.0766 37.9838 62.0766 34.148C62.0766 30.3122 65.0739 27.2147 68.906 27.2147C70.975 27.2147 72.4826 28.0323 73.6017 29.0768L75.444 27.2327C73.8895 25.7416 71.8206 24.5999 68.9204 24.5999C63.6634 24.5999 59.252 28.8859 59.252 34.1336C59.252 39.3957 63.6598 43.6673 68.9204 43.6673C71.7594 43.6673 73.8896 42.7381 75.5735 40.9877C77.2899 39.2696 77.8332 36.8457 77.8332 34.89C77.8332 34.2813 77.7864 33.7338 77.6893 33.2692H68.888C68.8916 33.2656 68.8916 33.298 68.8916 33.298ZM134.268 35.3222C133.753 33.9427 132.199 31.4071 129.011 31.4071C125.852 31.4071 123.225 33.8959 123.225 37.5516C123.225 41.0021 125.823 43.6961 129.317 43.6961C132.123 43.6961 133.757 41.9781 134.43 40.9696L132.346 39.5722C131.656 40.5987 130.695 41.2722 129.331 41.2722C127.953 41.2722 126.989 40.6455 126.348 39.4101L134.556 36.0065C134.556 36.0101 134.268 35.3222 134.268 35.3222ZM125.898 37.3751C125.834 35.0016 127.741 33.795 129.104 33.795C130.18 33.795 131.076 34.3245 131.382 35.0953L125.898 37.3751ZM119.231 43.3288H121.926V25.277H119.231V43.3288ZM114.805 32.7866H114.708C114.1 32.0626 112.945 31.4071 111.469 31.4071C108.407 31.4071 105.586 34.1048 105.586 37.5696C105.586 41.0201 108.393 43.6853 111.469 43.6853C112.927 43.6853 114.1 43.0262 114.708 42.2879H114.805V43.1703C114.805 45.515 113.553 46.7792 111.534 46.7792C109.883 46.7792 108.857 45.5906 108.44 44.5966L106.097 45.5762C106.77 47.197 108.566 49.2032 111.531 49.2032C114.69 49.2032 117.367 47.3411 117.367 42.7993V31.7745H114.819V32.7866C114.823 32.7866 114.805 32.7866 114.805 32.7866ZM111.711 41.2758C109.85 41.2758 108.296 39.7199 108.296 37.5696C108.296 35.4014 109.85 33.831 111.711 33.831C113.553 33.831 114.981 35.4194 114.981 37.5696C114.999 39.7199 113.556 41.2758 111.711 41.2758ZM146.887 25.277H140.442V43.3288H143.137V36.4927H146.89C149.873 36.4927 152.806 34.3281 152.806 30.892C152.806 27.456 149.884 25.277 146.887 25.277ZM146.966 33.9715H143.134V27.7766H146.966C148.985 27.7766 150.125 29.4442 150.125 30.874C150.125 32.2895 148.97 33.9715 146.966 33.9715ZM163.608 31.3891C161.65 31.3891 159.632 32.2571 158.797 34.148L161.186 35.1421C161.701 34.148 162.643 33.8094 163.64 33.8094C165.036 33.8094 166.447 34.645 166.479 36.1361V36.327C165.997 36.0533 164.939 35.6355 163.673 35.6355C161.093 35.6355 158.477 37.0474 158.477 39.6946C158.477 42.1186 160.592 43.6745 162.949 43.6745C164.759 43.6745 165.756 42.8569 166.378 41.9097H166.476V43.3072H169.073V36.3919C169.073 33.1719 166.684 31.3891 163.608 31.3891ZM163.27 41.2758C162.388 41.2758 161.154 40.8436 161.154 39.7343C161.154 38.3368 162.694 37.8073 164.007 37.8073C165.195 37.8073 165.756 38.0631 166.461 38.416C166.267 40.0368 164.9 41.2614 163.27 41.2758ZM178.551 31.7745L175.457 39.6046H175.36L172.154 31.7745H169.253L174.064 42.7201L171.322 48.8034H174.129L181.531 31.7745H178.551ZM154.292 43.3288H156.987V25.277H154.292V43.3288Z" fill="white"/>
<path fill-rule="evenodd" clip-rule="evenodd" d="M15.055 10.8809C14.6376 11.3312 14.3965 12.0191 14.3965 12.9195V44.8559C14.3965 45.7563 14.6376 46.4443 15.0694 46.8765L15.1809 46.9737L33.0569 29.0804V28.6806L15.1665 10.7837L15.055 10.8809Z" fill="url(#paint0_linear_365_400)"/>
<path fill-rule="evenodd" clip-rule="evenodd" d="M39.0047 35.0626L33.0425 29.0946V28.6768L39.0047 22.7087L39.1343 22.788L46.1868 26.8003C48.2054 27.9384 48.2054 29.8185 46.1868 30.9711L39.1343 34.9834L39.0047 35.0626Z" fill="url(#paint1_linear_365_400)"/>
<path fill-rule="evenodd" clip-rule="evenodd" d="M39.1343 34.9834L33.0425 28.8857L15.0549 46.8907C15.7134 47.5967 16.8181 47.6759 18.0523 46.988L39.1343 34.9834Z" fill="url(#paint2_linear_365_400)"/>
<path fill-rule="evenodd" clip-rule="evenodd" d="M39.1343 22.788L18.0523 10.8014C16.8181 10.0955 15.7098 10.1928 15.0549 10.8987L33.0425 28.8857L39.1343 22.788Z" fill="url(#paint3_linear_365_400)"/>
<path opacity="0.2" fill-rule="evenodd" clip-rule="evenodd" d="M39.0047 34.8538L18.0667 46.7611C16.8972 47.4346 15.8537 47.3878 15.1809 46.7755L15.0693 46.8871L15.1809 46.9844C15.8537 47.5931 16.8972 47.6435 18.0667 46.97L39.1487 34.9834L39.0047 34.8538Z" fill="white"/>
<path opacity="0.12" fill-rule="evenodd" clip-rule="evenodd" d="M46.1869 30.7622L38.9868 34.8538L39.1164 34.9834L46.1689 30.9711C47.18 30.3949 47.6765 29.6385 47.6765 28.8857C47.6154 29.5773 47.1008 30.2328 46.1869 30.7622Z" fill="white"/>
<path opacity="0.25" fill-rule="evenodd" clip-rule="evenodd" d="M18.0523 11.0105L46.1868 27.0094C47.1008 27.5244 47.6153 28.1979 47.6945 28.8859C47.6945 28.1331 47.1979 27.3767 46.1868 26.8005L18.0523 10.8016C16.0337 9.64548 14.3965 10.6107 14.3965 12.9194V13.1283C14.3965 10.816 16.0337 9.86879 18.0523 11.0105Z" fill="black"/>
</g>
<defs>
<linearGradient id="paint0_linear_365_400" x1="31.4535" y1="12.5749" x2="2.81551" y2="20.1982" gradientUnits="userSpaceOnUse">
<stop stop-color="#00A0FF"/>
<stop offset="0.00657" stop-color="#00A1FF"/>
<stop offset="0.2601" stop-color="#00BEFF"/>
<stop offset="0.5122" stop-color="#00D2FF"/>
<stop offset="0.7604" stop-color="#00DFFF"/>
<stop offset="1" stop-color="#00E3FF"/>
</linearGradient>
<linearGradient id="paint1_linear_365_400" x1="48.8192" y1="28.8857" x2="13.9059" y2="28.8857" gradientUnits="userSpaceOnUse">
<stop stop-color="#FFE000"/>
<stop offset="0.4087" stop-color="#FFBD00"/>
<stop offset="0.7754" stop-color="#FFA500"/>
<stop offset="1" stop-color="#FF9C00"/>
</linearGradient>
<linearGradient id="paint2_linear_365_400" x1="35.8218" y1="32.2038" x2="12.8014" y2="70.9114" gradientUnits="userSpaceOnUse">
<stop stop-color="#FF3A44"/>
<stop offset="1" stop-color="#C31162"/>
</linearGradient>
<linearGradient id="paint3_linear_365_400" x1="10.5255" y1="0.258132" x2="20.7958" y2="17.5456" gradientUnits="userSpaceOnUse">
<stop stop-color="#32A071"/>
<stop offset="0.0685" stop-color="#2DA771"/>
<stop offset="0.4762" stop-color="#15CF74"/>
<stop offset="0.8009" stop-color="#06E775"/>
<stop offset="1" stop-color="#00F076"/>
</linearGradient>
<clipPath id="clip0_365_400">
<rect width="195.592" height="57.7715" fill="white"/>
</clipPath>
</defs>
</svg>
