<svg width="84" height="30" viewBox="0 0 84 30" fill="none" xmlns="http://www.w3.org/2000/svg">
<path d="M29.8186 14.1871C32.0197 14.1871 33.7046 14.9284 34.8733 16.411C36.0614 17.8746 36.451 19.6424 36.042 21.7142C36.003 22.0184 35.9057 22.389 35.7498 22.8262H23.5367C23.5367 24.0997 23.936 25.0881 24.7346 25.7914C25.5527 26.4947 26.6338 26.8464 27.9778 26.8464C29.9452 26.8464 31.4937 26.1431 32.6235 24.7365L34.5227 26.0765C33.7825 27.065 32.7988 27.8348 31.5716 28.386C30.364 28.9182 29.0686 29.1843 27.6856 29.1843C25.3872 29.1843 23.6243 28.4335 22.3972 26.9319C21.17 25.4303 20.7512 23.5865 21.1408 21.4006C21.5109 19.3287 22.5141 17.6085 24.1503 16.2399C25.7865 14.8714 27.6759 14.1871 29.8186 14.1871ZM23.9165 20.6308H33.6461C33.7046 19.2812 33.3637 18.2643 32.6235 17.58C31.8833 16.8767 30.8996 16.5251 29.6725 16.5251C28.309 16.5251 27.111 16.8957 26.0787 17.637C25.0658 18.3593 24.345 19.3572 23.9165 20.6308ZM38.2914 28.8137L39.84 20.1461L42.0313 8H44.5733L40.8334 28.8137H38.2914ZM51.5184 16.9527L50.116 24.6795C49.9796 25.3638 50.038 25.858 50.2913 26.1621C50.5445 26.4662 50.9535 26.6278 51.5184 26.6468C52.1028 26.6468 52.8235 26.6278 53.6806 26.5898L53.2715 28.8137C51.1094 29.0988 49.5413 28.9182 48.5674 28.272C47.5935 27.6067 47.2623 26.4092 47.574 24.6795L48.9472 16.9527H46.0547L46.5221 14.5577H49.3855L49.9699 11.3074L52.6579 10.5661L51.9275 14.5577H55.8427L55.4044 16.9527H51.5184ZM61.6836 16.6391C62.9107 15.0234 64.5761 14.2441 66.6798 14.3011L66.2123 16.8957C64.9657 16.8577 63.8262 17.1903 62.7938 17.8936C61.7809 18.5779 61.1381 19.6994 60.8654 21.258V21.2295L59.4922 28.8137H56.9502L59.5214 14.5577H62.0634L61.6836 16.6391ZM81.3049 14.5577H83.8469L81.2757 28.8137H78.7337L79.1136 26.7893C77.5942 28.386 75.6464 29.1843 73.27 29.1843C71.1857 29.1843 69.5398 28.405 68.3321 26.8464C67.1439 25.2877 66.7446 23.463 67.1342 21.3721C67.5238 19.1862 68.5074 17.4469 70.0852 16.1544C71.663 14.8429 73.4453 14.1871 75.4321 14.1871C76.6398 14.1871 77.7111 14.4532 78.6461 14.9854C79.6005 15.4986 80.331 16.2399 80.8374 17.2093L81.3049 14.5577ZM70.4943 25.2782C71.3318 26.2856 72.4908 26.7893 73.9712 26.7893C75.4516 26.7893 76.7567 26.3237 77.8864 25.3923C79.0357 24.4419 79.7369 23.2444 79.9901 21.7998C80.3018 20.1841 80.0096 18.9106 79.1136 17.9792C78.237 17.0478 77.0683 16.5821 75.6074 16.5821C74.2244 16.5821 72.9583 17.0288 71.8091 17.9221C70.6598 18.7965 69.9488 20.013 69.6761 21.5717C69.4034 23.0353 69.6761 24.2708 70.4943 25.2782Z" fill="white"/>
<path d="M18.5558 10.425C18.5096 8.34919 18.3248 6.27342 17.5397 4.33604C16.6621 2.02963 14.9532 0.138382 12.4129 -2.6921e-06H12.2744C10.9811 -2.6921e-06 6.73193 0.415151 4.56114 5.67376L3.91453 7.42663H8.57941L8.67178 7.14986C9.04127 6.22729 9.54933 5.2586 10.2883 4.61281C11.0735 3.92089 12.2744 3.87476 13.1057 4.52055C13.8909 5.16635 14.2604 6.22729 14.4451 7.19598C14.6761 8.2108 14.7685 9.22562 14.8146 10.2866H14.7223C13.5214 10.2866 12.2744 10.425 11.0735 10.6095C10.8888 10.6556 10.7502 10.6556 10.6116 10.7017C10.0112 10.794 9.45696 10.9785 8.90271 11.1169C8.53322 11.2091 8.16372 11.3475 7.84041 11.4859C7.33236 11.6704 6.77812 11.9011 6.31625 12.1317C5.4387 12.5468 4.60733 13.1004 3.86834 13.7C1.14331 15.9603 -0.242295 19.5583 0.0348269 23.0179C0.173388 24.6785 0.727631 26.2469 1.92849 27.4001C3.17554 28.5994 4.83827 29.2452 6.54718 29.1991C8.9489 29.153 11.3968 27.9998 13.1981 26.5237C16.1079 24.125 17.4011 20.2964 18.0939 16.6984C18.4634 14.6226 18.6482 12.5468 18.5558 10.425ZM14.5861 14.8642C14.0319 18.4161 12.69 22.5566 9.3184 24.4018C8.20991 25.0014 6.54718 25.3705 5.62344 24.2173C5.25395 23.756 5.02301 23.1102 5.02301 22.5105C4.93064 19.7428 6.54718 17.1135 8.90271 15.6374C9.17984 15.4529 9.45696 15.3145 9.78026 15.1762C10.066 15.0539 10.2029 14.9872 10.44 14.9083C10.5786 14.8622 10.7502 14.8071 10.8888 14.761C11.4892 14.5765 12.1358 14.4381 12.7824 14.3458C12.9541 14.3213 13.9686 14.2026 14.5837 14.1613H14.6743C14.6302 14.4672 14.6046 14.7454 14.5861 14.8642Z" fill="white"/>
<mask id="mask0_112_510" style="mask-type:alpha" maskUnits="userSpaceOnUse" x="0" y="0" width="19" height="30">
<path d="M18.5558 10.425C18.5096 8.34919 18.3248 6.27342 17.5397 4.33604C16.6621 2.02963 14.9532 0.138382 12.4129 -2.6921e-06H12.2744C10.9811 -2.6921e-06 6.73193 0.415151 4.56114 5.67376L3.91453 7.42663H8.57941L8.67178 7.14986C9.04127 6.22729 9.54933 5.2586 10.2883 4.61281C11.0735 3.92089 12.2744 3.87476 13.1057 4.52055C13.8909 5.16635 14.2604 6.22729 14.4451 7.19598C14.6761 8.2108 14.7685 9.22562 14.8146 10.2866H14.7223C13.5214 10.2866 12.2744 10.425 11.0735 10.6095C10.8888 10.6556 10.7502 10.6556 10.6116 10.7017C10.0112 10.794 9.45696 10.9785 8.90271 11.1169C8.53322 11.2091 8.16372 11.3475 7.84041 11.4859C7.33236 11.6704 6.77812 11.9011 6.31625 12.1317C5.4387 12.5468 4.60733 13.1004 3.86834 13.7C1.14331 15.9603 -0.242295 19.5583 0.0348269 23.0179C0.173388 24.6785 0.727631 26.2469 1.92849 27.4001C3.17554 28.5994 4.83827 29.2452 6.54718 29.1991C8.9489 29.153 11.3968 27.9998 13.1981 26.5237C16.1079 24.125 17.4011 20.2964 18.0939 16.6984C18.4634 14.6226 18.6482 12.5468 18.5558 10.425ZM14.5861 14.8642C14.0319 18.4161 12.69 22.5566 9.3184 24.4018C8.20991 25.0014 6.54718 25.3705 5.62344 24.2173C5.25395 23.756 5.02301 23.1102 5.02301 22.5105C4.93064 19.7428 6.54718 17.1135 8.90271 15.6374C9.17984 15.4529 9.45696 15.3145 9.78026 15.1762C10.066 15.0539 10.2029 14.9872 10.44 14.9083C10.5786 14.8622 10.7502 14.8071 10.8888 14.761C11.4892 14.5765 12.1358 14.4381 12.7824 14.3458C12.9541 14.3213 13.9686 14.2026 14.5837 14.1613H14.6743C14.6302 14.4672 14.6046 14.7454 14.5861 14.8642Z" fill="white"/>
</mask>
<g mask="url(#mask0_112_510)">
<path d="M5.62848 24.338L5.22391 20.633L7.08402 17.4131L10.7008 15.2109C10.7008 15.2109 13.1202 14.5907 14.6705 14.1933C14.8469 13.2229 14.9393 11.2476 14.807 10.2332C14.6516 9.04238 10.5285 10.5421 9.99925 10.6742C10.1378 10.6281 9.8145 10.7203 9.99925 10.6742C9.99925 10.6742 8.4996 11.1153 7.79388 11.4682C7.28582 11.6527 6.75609 11.855 6.29423 12.0857C5.41667 12.5008 4.47498 13.118 3.73599 13.7176C1.01096 15.9779 -0.246121 19.5931 0.0310001 23.0527C0.169561 24.7134 0.723804 26.2817 1.92466 27.4349C4.83444 25.0362 4.65812 25.3084 5.62848 24.338ZM5.62848 24.338C5.25898 23.8767 5.01919 23.145 5.01919 22.5453C4.92681 19.7776 6.54335 17.1483 8.89889 15.6722C9.17601 15.4877 9.45313 15.3493 9.77644 15.2109C10.0621 15.0887 10.1991 15.022 10.4362 14.9431C10.5747 14.897 10.7464 14.8419 10.8849 14.7958C11.4854 14.6113 12.132 14.4729 12.7786 14.3806C12.9503 14.3561 14.0554 14.2345 14.6705 14.1933C13.1202 14.5907 10.7008 15.2109 10.7008 15.2109L7.08402 17.4131L5.22391 20.633L5.62848 24.338Z" fill="url(#paint0_radial_112_510)"/>
</g>
<defs>
<radialGradient id="paint0_radial_112_510" cx="0" cy="0" r="1" gradientUnits="userSpaceOnUse" gradientTransform="translate(20.144 14.3351) rotate(-172.44) scale(14.4161 15.1797)">
<stop offset="0.0729167" stop-color="#436FEE"/>
<stop offset="0.979167" stop-color="white" stop-opacity="0.13"/>
</radialGradient>
</defs>
</svg>
