<svg width="30" height="26" viewBox="0 0 30 26" fill="none" xmlns="http://www.w3.org/2000/svg">
<g clip-path="url(#clip0_82_4690)">
<path d="M25.9278 9.55084H3.65356V19.883H25.9278V9.55084Z" fill="white" fill-opacity="0.4"/>
<path d="M27.2642 23.327V21.605H23.7003V7.85464L29.0328 7.87186L29.0372 6.10679L14.804 0.940735L0.526183 6.10679L0.521729 7.78576L5.88091 7.80298V21.605H2.31703V23.327H0.535093V25.049H29.0461V23.327H27.2642ZM20.1364 21.605H16.5725V7.83312L20.1364 7.84603V21.605ZM9.44479 7.81159L13.0087 7.82451V21.605H9.44479V7.81159Z" fill="white" fill-opacity="0.6"/>
<path d="M23.7003 9.55084H5.88086V19.883H23.7003V9.55084Z" fill="white"/>
<path d="M16.7417 15.7415C16.7417 14.7341 16.1091 14.3983 14.8841 14.2347C13.9797 14.1099 13.806 13.9032 13.806 13.4942C13.806 13.1068 14.1134 12.8313 14.7014 12.8313C15.2984 12.8313 15.6102 13.0551 15.7082 13.5846H16.5947C16.5101 12.7839 16.0334 12.3103 15.2315 12.1726V11.2728H14.3406V12.1554C13.4585 12.2759 12.8883 12.8442 12.8883 13.5717C12.8883 14.5145 13.4763 14.8805 14.7237 15.044C15.5701 15.1775 15.8107 15.354 15.8107 15.819C15.8107 16.2839 15.4008 16.5939 14.8261 16.5939C13.9441 16.5939 13.7347 16.172 13.6679 15.664H12.7368C12.7992 16.4992 13.2714 17.1277 14.345 17.2655V18.1609H15.236V17.2655C16.1537 17.1234 16.7417 16.5035 16.7417 15.7415Z" fill="#52BD94"/>
</g>
<defs>
<clipPath id="clip0_82_4690">
<rect width="28.9565" height="24.1083" fill="white" transform="translate(0.521729 0.940735)"/>
</clipPath>
</defs>
</svg>
